<?xml version="1.0" standalone="no"?><!DOCTYPE svg PUBLIC "-//W3C//DTD SVG 1.1//EN" "http://www.w3.org/Graphics/SVG/1.1/DTD/svg11.dtd"><svg t="1499737789322" class="icon" style="" viewBox="0 0 1024 1024" version="1.1" xmlns="http://www.w3.org/2000/svg" p-id="2087" xmlns:xlink="http://www.w3.org/1999/xlink" width="200" height="200"><defs><style type="text/css"></style></defs><path d="M831.057151 448.103738l-62.818721 0 0.192382-184.516434c0-109.792569-114.357538-198.744483-255.743662-198.744483-141.194766 0-255.743662 88.951915-255.743662 198.744483l-1.191128 184.516434-64.185858 0c-35.343973 0-62.556755 28.41926-62.556755 55.897078l-1.37737 399.271566c0 27.447119 29.968545 55.884798 65.311495 55.884798l639.612423 0c35.217083 0 62.434981-28.437679 62.434981-55.884798l1.37123-399.271566C896.36353 476.522997 866.275257 448.103738 831.057151 448.103738L831.057151 448.103738zM639.244544 448.103738 383.878482 448.103738 383.878482 256.474302c0-54.767348 58.429761-92.28687 128.808668-92.28687 70.446445 0 127.435391 37.519522 127.435391 92.28687L639.244544 448.103738 639.244544 448.103738z" p-id="2088"></path></svg>